<svg width="48" height="48" viewBox="0 0 48 48" fill="none" xmlns="http://www.w3.org/2000/svg">
<mask id="path-1-outside-1_249_531" maskUnits="userSpaceOnUse" x="3" y="5" width="40" height="38" fill="black">
<rect fill="white" x="3" y="5" width="40" height="38"/>
<path d="M42.01 14.2828C41.764 14.1444 41.4647 14.1599 41.2264 14.3137C38.4226 16.1359 35.6264 16.5894 32.7917 16.3203C32.085 13.1758 32.2232 9.96953 33.2064 7.01747C33.3369 6.61781 33.1219 6.17953 32.7225 6.04114C32.3155 5.90277 31.8853 6.12576 31.747 6.52543C30.733 9.57016 30.5411 12.853 31.1709 16.0902C28.6512 15.6288 26.0933 14.6985 23.4736 13.7454C20.8693 12.7919 18.2346 11.8385 15.5689 11.3465C15.4767 9.70114 15.1847 8.07873 14.6626 6.52575C14.5321 6.12609 14.0942 5.9031 13.6871 6.04147C13.2878 6.17211 13.065 6.61038 13.2032 7.0178C13.6411 8.34036 13.9099 9.71664 14.0099 11.1157C10.8141 10.7698 7.58001 11.2309 4.34626 13.3377C4.13053 13.4761 4 13.7145 4 13.9758V20.3266C4 20.611 4.15368 20.8649 4.39932 21.0033C4.64528 21.1416 4.9446 21.1262 5.18284 20.9724C7.73335 19.3117 10.2759 18.7887 12.8419 18.9043C12.665 19.3657 12.4808 19.8268 12.2657 20.2728C11.4745 21.949 10.906 23.7864 10.545 25.7011C10.545 25.7165 10.5296 25.7242 10.5296 25.7394V25.7931C10.2531 27.2845 10.1071 28.8223 10.1071 30.3831C10.1071 34.4732 11.052 38.3559 12.8342 41.6003C12.9724 41.8465 13.2261 42 13.5103 42H32.9001C33.1766 42 33.438 41.8462 33.5763 41.6003C35.3584 38.3558 36.3033 34.4731 36.3033 30.3831C36.3033 30.2061 36.2879 30.0371 36.2879 29.8602C36.2956 29.7833 36.311 29.7063 36.2956 29.6294C36.2956 29.614 36.2802 29.6063 36.2802 29.5911C36.2419 28.33 36.1111 27.0847 35.896 25.87C35.896 25.8391 35.9037 25.8163 35.896 25.7854C35.8882 25.7622 35.8805 25.7471 35.8728 25.7239C35.7805 25.2165 35.6654 24.7167 35.5426 24.217C37.7089 24.0326 39.8907 23.3713 42.0799 21.9487C42.295 21.8104 42.4255 21.5642 42.4255 21.3029V14.9522C42.4098 14.6754 42.2561 14.4141 42.0105 14.2835L42.01 14.2828ZM13.6636 20.9334C13.9478 20.3259 14.2015 19.6955 14.4239 19.0651C17.2124 19.4574 20.0395 20.4797 22.9435 21.541C24.4109 22.0793 25.8934 22.6173 27.3835 23.071C28.9352 23.5476 30.4948 23.9244 32.0618 24.1242C32.0927 24.1319 32.1232 24.1397 32.1541 24.1397C32.1618 24.1397 32.1695 24.1319 32.1773 24.1319C32.7688 24.2011 33.3604 24.2471 33.9594 24.2626C34.0516 24.6162 34.1513 24.9621 34.2281 25.3235C26.915 26.7229 19.5093 26.7075 12.2037 25.2775C12.5342 23.7474 13.0258 22.2865 13.6633 20.9334L13.6636 20.9334ZM11.92 26.7996C15.7071 27.5377 19.5099 27.922 23.3203 27.922C27.0536 27.922 30.787 27.5529 34.4975 26.8379C34.6126 27.5989 34.6817 28.3757 34.7203 29.1676C32.408 29.7751 24.9415 32.3739 24.5645 40.4623H22.0831C21.6835 32.0664 13.6557 29.591 11.6812 29.1066C11.7195 28.3224 11.804 27.5536 11.9195 26.8001L11.92 26.7996ZM11.6586 30.6822C13.779 31.2512 20.1625 33.55 20.5469 40.462H13.9787C12.4962 37.602 11.6973 34.2423 11.6587 30.6822H11.6586ZM32.4385 40.462H26.1009C26.462 33.7039 32.4231 31.3899 34.7588 30.7358C34.697 34.2722 33.9058 37.6168 32.4387 40.462H32.4385ZM40.8733 20.8868C39.7133 21.5941 38.5533 22.0632 37.3933 22.3554V21.9632C37.3933 21.5403 37.0477 21.1944 36.6252 21.1944C36.2028 21.1944 35.8571 21.5403 35.8571 21.9632V22.6399C34.8817 22.7551 33.9059 22.7628 32.9228 22.6782V21.1403C32.9228 20.7175 32.5771 20.3716 32.1547 20.3716C31.7322 20.3716 31.3866 20.7175 31.3866 21.1403V22.478C30.4111 22.3087 29.4353 22.0706 28.4522 21.7862V21.0174C28.4522 20.5946 28.1066 20.2487 27.6841 20.2487C27.2616 20.2487 26.916 20.5946 26.916 21.0174V21.3096C25.9479 20.9865 24.9648 20.6329 23.9816 20.2792V18.5876C23.9816 18.1648 23.636 17.8189 23.2135 17.8189C22.7911 17.8189 22.4455 18.1648 22.4455 18.5876V19.7177C21.47 19.3641 20.4942 19.0182 19.5111 18.7105L19.5098 17.9266C19.5098 17.5038 19.1642 17.1579 18.7417 17.1579C18.3192 17.1579 17.9736 17.5038 17.9736 17.9266V18.2497C16.9981 17.9807 16.0224 17.75 15.0392 17.5962V16.0278C15.0392 15.605 14.6936 15.2591 14.2711 15.2591C13.8487 15.2591 13.503 15.605 13.503 16.0278V17.4118C13.0574 17.3735 12.6041 17.3504 12.1511 17.3504C11.6209 17.3504 11.091 17.3812 10.5609 17.435V16.9735C10.5609 16.5507 10.2153 16.2048 9.79282 16.2048C9.37036 16.2048 9.02473 16.5507 9.02473 16.9735V17.6885C7.8647 17.9498 6.70467 18.3575 5.54473 18.9802V14.398C11.2525 10.915 16.9368 12.9912 22.9518 15.1899C25.9784 16.2971 29.0588 17.4119 32.1627 17.7887C35.0512 18.1423 37.9624 17.8501 40.8814 16.3049L40.8811 20.8868L40.8733 20.8868Z"/>
</mask>
<path d="M42.01 14.2828C41.764 14.1444 41.4647 14.1599 41.2264 14.3137C38.4226 16.1359 35.6264 16.5894 32.7917 16.3203C32.085 13.1758 32.2232 9.96953 33.2064 7.01747C33.3369 6.61781 33.1219 6.17953 32.7225 6.04114C32.3155 5.90277 31.8853 6.12576 31.747 6.52543C30.733 9.57016 30.5411 12.853 31.1709 16.0902C28.6512 15.6288 26.0933 14.6985 23.4736 13.7454C20.8693 12.7919 18.2346 11.8385 15.5689 11.3465C15.4767 9.70114 15.1847 8.07873 14.6626 6.52575C14.5321 6.12609 14.0942 5.9031 13.6871 6.04147C13.2878 6.17211 13.065 6.61038 13.2032 7.0178C13.6411 8.34036 13.9099 9.71664 14.0099 11.1157C10.8141 10.7698 7.58001 11.2309 4.34626 13.3377C4.13053 13.4761 4 13.7145 4 13.9758V20.3266C4 20.611 4.15368 20.8649 4.39932 21.0033C4.64528 21.1416 4.9446 21.1262 5.18284 20.9724C7.73335 19.3117 10.2759 18.7887 12.8419 18.9043C12.665 19.3657 12.4808 19.8268 12.2657 20.2728C11.4745 21.949 10.906 23.7864 10.545 25.7011C10.545 25.7165 10.5296 25.7242 10.5296 25.7394V25.7931C10.2531 27.2845 10.1071 28.8223 10.1071 30.3831C10.1071 34.4732 11.052 38.3559 12.8342 41.6003C12.9724 41.8465 13.2261 42 13.5103 42H32.9001C33.1766 42 33.438 41.8462 33.5763 41.6003C35.3584 38.3558 36.3033 34.4731 36.3033 30.3831C36.3033 30.2061 36.2879 30.0371 36.2879 29.8602C36.2956 29.7833 36.311 29.7063 36.2956 29.6294C36.2956 29.614 36.2802 29.6063 36.2802 29.5911C36.2419 28.33 36.1111 27.0847 35.896 25.87C35.896 25.8391 35.9037 25.8163 35.896 25.7854C35.8882 25.7622 35.8805 25.7471 35.8728 25.7239C35.7805 25.2165 35.6654 24.7167 35.5426 24.217C37.7089 24.0326 39.8907 23.3713 42.0799 21.9487C42.295 21.8104 42.4255 21.5642 42.4255 21.3029V14.9522C42.4098 14.6754 42.2561 14.4141 42.0105 14.2835L42.01 14.2828ZM13.6636 20.9334C13.9478 20.3259 14.2015 19.6955 14.4239 19.0651C17.2124 19.4574 20.0395 20.4797 22.9435 21.541C24.4109 22.0793 25.8934 22.6173 27.3835 23.071C28.9352 23.5476 30.4948 23.9244 32.0618 24.1242C32.0927 24.1319 32.1232 24.1397 32.1541 24.1397C32.1618 24.1397 32.1695 24.1319 32.1773 24.1319C32.7688 24.2011 33.3604 24.2471 33.9594 24.2626C34.0516 24.6162 34.1513 24.9621 34.2281 25.3235C26.915 26.7229 19.5093 26.7075 12.2037 25.2775C12.5342 23.7474 13.0258 22.2865 13.6633 20.9334L13.6636 20.9334ZM11.92 26.7996C15.7071 27.5377 19.5099 27.922 23.3203 27.922C27.0536 27.922 30.787 27.5529 34.4975 26.8379C34.6126 27.5989 34.6817 28.3757 34.7203 29.1676C32.408 29.7751 24.9415 32.3739 24.5645 40.4623H22.0831C21.6835 32.0664 13.6557 29.591 11.6812 29.1066C11.7195 28.3224 11.804 27.5536 11.9195 26.8001L11.92 26.7996ZM11.6586 30.6822C13.779 31.2512 20.1625 33.55 20.5469 40.462H13.9787C12.4962 37.602 11.6973 34.2423 11.6587 30.6822H11.6586ZM32.4385 40.462H26.1009C26.462 33.7039 32.4231 31.3899 34.7588 30.7358C34.697 34.2722 33.9058 37.6168 32.4387 40.462H32.4385ZM40.8733 20.8868C39.7133 21.5941 38.5533 22.0632 37.3933 22.3554V21.9632C37.3933 21.5403 37.0477 21.1944 36.6252 21.1944C36.2028 21.1944 35.8571 21.5403 35.8571 21.9632V22.6399C34.8817 22.7551 33.9059 22.7628 32.9228 22.6782V21.1403C32.9228 20.7175 32.5771 20.3716 32.1547 20.3716C31.7322 20.3716 31.3866 20.7175 31.3866 21.1403V22.478C30.4111 22.3087 29.4353 22.0706 28.4522 21.7862V21.0174C28.4522 20.5946 28.1066 20.2487 27.6841 20.2487C27.2616 20.2487 26.916 20.5946 26.916 21.0174V21.3096C25.9479 20.9865 24.9648 20.6329 23.9816 20.2792V18.5876C23.9816 18.1648 23.636 17.8189 23.2135 17.8189C22.7911 17.8189 22.4455 18.1648 22.4455 18.5876V19.7177C21.47 19.3641 20.4942 19.0182 19.5111 18.7105L19.5098 17.9266C19.5098 17.5038 19.1642 17.1579 18.7417 17.1579C18.3192 17.1579 17.9736 17.5038 17.9736 17.9266V18.2497C16.9981 17.9807 16.0224 17.75 15.0392 17.5962V16.0278C15.0392 15.605 14.6936 15.2591 14.2711 15.2591C13.8487 15.2591 13.503 15.605 13.503 16.0278V17.4118C13.0574 17.3735 12.6041 17.3504 12.1511 17.3504C11.6209 17.3504 11.091 17.3812 10.5609 17.435V16.9735C10.5609 16.5507 10.2153 16.2048 9.79282 16.2048C9.37036 16.2048 9.02473 16.5507 9.02473 16.9735V17.6885C7.8647 17.9498 6.70467 18.3575 5.54473 18.9802V14.398C11.2525 10.915 16.9368 12.9912 22.9518 15.1899C25.9784 16.2971 29.0588 17.4119 32.1627 17.7887C35.0512 18.1423 37.9624 17.8501 40.8814 16.3049L40.8811 20.8868L40.8733 20.8868Z" fill="#EC4899"/>
<path d="M42.01 14.2828C41.764 14.1444 41.4647 14.1599 41.2264 14.3137C38.4226 16.1359 35.6264 16.5894 32.7917 16.3203C32.085 13.1758 32.2232 9.96953 33.2064 7.01747C33.3369 6.61781 33.1219 6.17953 32.7225 6.04114C32.3155 5.90277 31.8853 6.12576 31.747 6.52543C30.733 9.57016 30.5411 12.853 31.1709 16.0902C28.6512 15.6288 26.0933 14.6985 23.4736 13.7454C20.8693 12.7919 18.2346 11.8385 15.5689 11.3465C15.4767 9.70114 15.1847 8.07873 14.6626 6.52575C14.5321 6.12609 14.0942 5.9031 13.6871 6.04147C13.2878 6.17211 13.065 6.61038 13.2032 7.0178C13.6411 8.34036 13.9099 9.71664 14.0099 11.1157C10.8141 10.7698 7.58001 11.2309 4.34626 13.3377C4.13053 13.4761 4 13.7145 4 13.9758V20.3266C4 20.611 4.15368 20.8649 4.39932 21.0033C4.64528 21.1416 4.9446 21.1262 5.18284 20.9724C7.73335 19.3117 10.2759 18.7887 12.8419 18.9043C12.665 19.3657 12.4808 19.8268 12.2657 20.2728C11.4745 21.949 10.906 23.7864 10.545 25.7011C10.545 25.7165 10.5296 25.7242 10.5296 25.7394V25.7931C10.2531 27.2845 10.1071 28.8223 10.1071 30.3831C10.1071 34.4732 11.052 38.3559 12.8342 41.6003C12.9724 41.8465 13.2261 42 13.5103 42H32.9001C33.1766 42 33.438 41.8462 33.5763 41.6003C35.3584 38.3558 36.3033 34.4731 36.3033 30.3831C36.3033 30.2061 36.2879 30.0371 36.2879 29.8602C36.2956 29.7833 36.311 29.7063 36.2956 29.6294C36.2956 29.614 36.2802 29.6063 36.2802 29.5911C36.2419 28.33 36.1111 27.0847 35.896 25.87C35.896 25.8391 35.9037 25.8163 35.896 25.7854C35.8882 25.7622 35.8805 25.7471 35.8728 25.7239C35.7805 25.2165 35.6654 24.7167 35.5426 24.217C37.7089 24.0326 39.8907 23.3713 42.0799 21.9487C42.295 21.8104 42.4255 21.5642 42.4255 21.3029V14.9522C42.4098 14.6754 42.2561 14.4141 42.0105 14.2835L42.01 14.2828ZM13.6636 20.9334C13.9478 20.3259 14.2015 19.6955 14.4239 19.0651C17.2124 19.4574 20.0395 20.4797 22.9435 21.541C24.4109 22.0793 25.8934 22.6173 27.3835 23.071C28.9352 23.5476 30.4948 23.9244 32.0618 24.1242C32.0927 24.1319 32.1232 24.1397 32.1541 24.1397C32.1618 24.1397 32.1695 24.1319 32.1773 24.1319C32.7688 24.2011 33.3604 24.2471 33.9594 24.2626C34.0516 24.6162 34.1513 24.9621 34.2281 25.3235C26.915 26.7229 19.5093 26.7075 12.2037 25.2775C12.5342 23.7474 13.0258 22.2865 13.6633 20.9334L13.6636 20.9334ZM11.92 26.7996C15.7071 27.5377 19.5099 27.922 23.3203 27.922C27.0536 27.922 30.787 27.5529 34.4975 26.8379C34.6126 27.5989 34.6817 28.3757 34.7203 29.1676C32.408 29.7751 24.9415 32.3739 24.5645 40.4623H22.0831C21.6835 32.0664 13.6557 29.591 11.6812 29.1066C11.7195 28.3224 11.804 27.5536 11.9195 26.8001L11.92 26.7996ZM11.6586 30.6822C13.779 31.2512 20.1625 33.55 20.5469 40.462H13.9787C12.4962 37.602 11.6973 34.2423 11.6587 30.6822H11.6586ZM32.4385 40.462H26.1009C26.462 33.7039 32.4231 31.3899 34.7588 30.7358C34.697 34.2722 33.9058 37.6168 32.4387 40.462H32.4385ZM40.8733 20.8868C39.7133 21.5941 38.5533 22.0632 37.3933 22.3554V21.9632C37.3933 21.5403 37.0477 21.1944 36.6252 21.1944C36.2028 21.1944 35.8571 21.5403 35.8571 21.9632V22.6399C34.8817 22.7551 33.9059 22.7628 32.9228 22.6782V21.1403C32.9228 20.7175 32.5771 20.3716 32.1547 20.3716C31.7322 20.3716 31.3866 20.7175 31.3866 21.1403V22.478C30.4111 22.3087 29.4353 22.0706 28.4522 21.7862V21.0174C28.4522 20.5946 28.1066 20.2487 27.6841 20.2487C27.2616 20.2487 26.916 20.5946 26.916 21.0174V21.3096C25.9479 20.9865 24.9648 20.6329 23.9816 20.2792V18.5876C23.9816 18.1648 23.636 17.8189 23.2135 17.8189C22.7911 17.8189 22.4455 18.1648 22.4455 18.5876V19.7177C21.47 19.3641 20.4942 19.0182 19.5111 18.7105L19.5098 17.9266C19.5098 17.5038 19.1642 17.1579 18.7417 17.1579C18.3192 17.1579 17.9736 17.5038 17.9736 17.9266V18.2497C16.9981 17.9807 16.0224 17.75 15.0392 17.5962V16.0278C15.0392 15.605 14.6936 15.2591 14.2711 15.2591C13.8487 15.2591 13.503 15.605 13.503 16.0278V17.4118C13.0574 17.3735 12.6041 17.3504 12.1511 17.3504C11.6209 17.3504 11.091 17.3812 10.5609 17.435V16.9735C10.5609 16.5507 10.2153 16.2048 9.79282 16.2048C9.37036 16.2048 9.02473 16.5507 9.02473 16.9735V17.6885C7.8647 17.9498 6.70467 18.3575 5.54473 18.9802V14.398C11.2525 10.915 16.9368 12.9912 22.9518 15.1899C25.9784 16.2971 29.0588 17.4119 32.1627 17.7887C35.0512 18.1423 37.9624 17.8501 40.8814 16.3049L40.8811 20.8868L40.8733 20.8868Z" stroke="#EC4899" stroke-width="0.8" mask="url(#path-1-outside-1_249_531)"/>
</svg>
