<svg width="52" height="53" viewBox="0 0 52 53" fill="none" xmlns="http://www.w3.org/2000/svg">
<path fill-rule="evenodd" clip-rule="evenodd" d="M14.0545 5.55588C16.1123 5.39167 18.0659 4.58247 19.6371 3.2435C23.3036 0.118867 28.6964 0.118867 32.363 3.2435C33.9342 4.58247 35.8878 5.39167 37.9456 5.55588C42.7477 5.9391 46.561 9.75236 46.9442 14.5545C47.1084 16.6123 47.9176 18.5659 49.2566 20.1371C52.3812 23.8036 52.3812 29.1964 49.2566 32.863C47.9176 34.4342 47.1084 36.3878 46.9442 38.4456C46.561 43.2477 42.7477 47.061 37.9456 47.4442C35.8878 47.6084 33.9342 48.4176 32.363 49.7566C28.6964 52.8812 23.3036 52.8812 19.6371 49.7566C18.0659 48.4176 16.1123 47.6084 14.0545 47.4442C9.25236 47.061 5.4391 43.2477 5.05588 38.4456C4.89167 36.3878 4.08247 34.4342 2.7435 32.863C-0.381133 29.1964 -0.381133 23.8036 2.7435 20.1371C4.08247 18.5659 4.89167 16.6123 5.05588 14.5545C5.4391 9.75236 9.25236 5.9391 14.0545 5.55588ZM37.8628 22.3628C39.1124 21.1131 39.1124 19.087 37.8628 17.8373C36.6131 16.5876 34.587 16.5876 33.3373 17.8373L22.8 28.3745L18.6628 24.2373C17.4131 22.9876 15.387 22.9876 14.1373 24.2373C12.8876 25.487 12.8876 27.5131 14.1373 28.7628L20.5373 35.1628C21.787 36.4124 23.8131 36.4124 25.0628 35.1628L37.8628 22.3628Z" fill="url(#paint0_linear_239_419)"/>
<defs>
<linearGradient id="paint0_linear_239_419" x1="51.6" y1="0.900024" x2="0.400024" y2="52.1" gradientUnits="userSpaceOnUse">
<stop stop-color="#9263FF"/>
<stop offset="1" stop-color="#200068"/>
</linearGradient>
</defs>
</svg>
