<svg width="18" height="20" viewBox="0 0 18 20" fill="none" xmlns="http://www.w3.org/2000/svg">
<path fill-rule="evenodd" clip-rule="evenodd" d="M1.79998 0.400024C2.46272 0.400024 2.99998 0.937283 2.99998 1.60002V4.12153C4.52409 2.56589 6.6486 1.60002 8.99998 1.60002C12.6593 1.60002 15.7691 3.93921 16.9217 7.20013C17.1425 7.82499 16.815 8.51058 16.1902 8.73143C15.5653 8.95229 14.8797 8.62478 14.6589 7.99992C13.8346 5.66792 11.6105 4.00002 8.99998 4.00002C7.03806 4.00002 5.29442 4.94205 4.1992 6.40002H7.79998C8.46272 6.40002 8.99998 6.93728 8.99998 7.60002C8.99998 8.26277 8.46272 8.80002 7.79998 8.80002H1.79998C1.13723 8.80002 0.599976 8.26277 0.599976 7.60002V1.60002C0.599976 0.937283 1.13723 0.400024 1.79998 0.400024ZM1.80977 11.2686C2.43463 11.0478 3.12022 11.3753 3.34108 12.0001C4.16532 14.3321 6.38941 16 8.99998 16C10.9619 16 12.7055 15.058 13.8008 13.6L10.2 13.6C9.53723 13.6 8.99998 13.0628 8.99998 12.4C8.99998 11.7373 9.53723 11.2 10.2 11.2H16.2C16.5182 11.2 16.8235 11.3265 17.0485 11.5515C17.2735 11.7765 17.4 12.0818 17.4 12.4V18.4C17.4 19.0628 16.8627 19.6 16.2 19.6C15.5372 19.6 15 19.0628 15 18.4V15.8785C13.4759 17.4342 11.3514 18.4 8.99998 18.4C5.34069 18.4 2.23083 16.0608 1.07826 12.7999C0.857406 12.1751 1.18491 11.4895 1.80977 11.2686Z" fill="#9CA3AF"/>
</svg>
